<?xml version="1.0" standalone="no"?>
<!DOCTYPE svg PUBLIC "-//W3C//DTD SVG 20010904//EN"
 "http://www.w3.org/TR/2001/REC-SVG-20010904/DTD/svg10.dtd">
<svg version="1.0" xmlns="http://www.w3.org/2000/svg"
 width="220.000000pt" height="220.000000pt" viewBox="0 0 220.000000 220.000000"
 preserveAspectRatio="xMidYMid meet">

<g transform="translate(0.000000,220.000000) scale(0.100000,-0.100000)"
fill="white" stroke="none">
<path d="M995 2079 c-465 -50 -830 -422 -874 -890 -33 -350 133 -704 419 -899
556 -378 1319 -107 1505 535 113 390 -26 814 -347 1055 -206 155 -455 226
-703 199z m220 -139 c176 -26 340 -105 468 -229 83 -79 123 -133 171 -227 122
-241 124 -520 5 -758 -51 -103 -93 -158 -183 -243 -334 -318 -859 -305 -1182
29 -164 169 -238 351 -238 588 0 231 72 414 227 577 85 90 141 131 243 182
155 77 322 104 489 81z"/>
<path d="M962 1680 c-99 -50 -160 -136 -169 -240 -6 -68 6 -96 46 -105 39 -8
69 9 77 43 20 89 29 109 63 143 49 49 105 66 165 49 159 -44 176 -253 27 -330
-20 -10 -50 -33 -67 -52 -53 -56 -67 -94 -72 -193 -4 -81 -2 -93 18 -117 29
-37 71 -38 99 -2 17 21 21 41 21 96 0 88 14 114 86 161 111 72 160 166 152
290 -8 119 -64 204 -170 257 -52 26 -72 30 -138 30 -66 0 -86 -4 -138 -30z"/>
<path d="M1025 677 c-30 -30 -35 -42 -35 -82 0 -38 5 -52 29 -75 51 -52 111
-52 162 0 24 23 29 37 29 74 0 64 -38 106 -103 113 -43 5 -49 3 -82 -30z"/>
</g>
</svg>
